<svg width="89" height="26" viewBox="0 0 89 26" fill="none" xmlns="http://www.w3.org/2000/svg">
<path d="M45.706 21.0238C45.6842 20.8394 45.5956 20.6962 45.4403 20.5943C45.285 20.4924 45.0945 20.4414 44.8689 20.4414C44.7038 20.4414 44.5595 20.4681 44.4357 20.5215C44.3132 20.5749 44.2173 20.6483 44.1481 20.7417C44.0802 20.8352 44.0462 20.9413 44.0462 21.0602C44.0462 21.1597 44.0699 21.2453 44.1172 21.3169C44.1657 21.3872 44.2276 21.4461 44.3028 21.4934C44.3781 21.5395 44.4569 21.5777 44.5394 21.6081C44.6219 21.6372 44.6978 21.6608 44.7669 21.679L45.1455 21.781C45.2426 21.8064 45.3505 21.8416 45.4694 21.8865C45.5896 21.9314 45.7042 21.9927 45.8134 22.0703C45.9238 22.1468 46.0148 22.2451 46.0864 22.3652C46.158 22.4853 46.1938 22.6327 46.1938 22.8074C46.1938 23.0088 46.141 23.1908 46.0355 23.3534C45.9311 23.516 45.7782 23.6452 45.5768 23.7411C45.3766 23.8369 45.1334 23.8849 44.847 23.8849C44.5801 23.8849 44.3489 23.8418 44.1536 23.7556C43.9595 23.6695 43.8066 23.5494 43.695 23.3953C43.5846 23.2412 43.5221 23.0622 43.5075 22.8584H43.9734C43.9856 22.9991 44.0329 23.1156 44.1154 23.2078C44.1991 23.2988 44.3047 23.3668 44.4321 23.4117C44.5607 23.4553 44.699 23.4772 44.847 23.4772C45.0193 23.4772 45.174 23.4493 45.3111 23.3935C45.4482 23.3364 45.5568 23.2576 45.6369 23.1569C45.717 23.0549 45.757 22.936 45.757 22.8001C45.757 22.6764 45.7224 22.5757 45.6533 22.498C45.5841 22.4204 45.4931 22.3573 45.3803 22.3087C45.2674 22.2602 45.1455 22.2178 45.0145 22.1814L44.5558 22.0503C44.2646 21.9666 44.0341 21.8471 43.8642 21.6918C43.6944 21.5365 43.6094 21.3332 43.6094 21.0821C43.6094 20.8734 43.6658 20.6914 43.7787 20.5361C43.8927 20.3796 44.0456 20.2582 44.2373 20.1721C44.4302 20.0847 44.6456 20.0411 44.8834 20.0411C45.1237 20.0411 45.3372 20.0841 45.524 20.1703C45.7109 20.2552 45.8589 20.3717 45.9681 20.5197C46.0785 20.6677 46.1368 20.8358 46.1428 21.0238H45.706ZM56.5058 20.092H56.9572V22.5599C56.9572 22.8147 56.8971 23.0422 56.777 23.2424C56.6581 23.4414 56.49 23.5985 56.2728 23.7138C56.0557 23.8278 55.8009 23.8849 55.5085 23.8849C55.216 23.8849 54.9612 23.8278 54.7441 23.7138C54.5269 23.5985 54.3582 23.4414 54.2381 23.2424C54.1192 23.0422 54.0598 22.8147 54.0598 22.5599V20.092H54.5111V22.5235C54.5111 22.7055 54.5511 22.8675 54.6312 23.0094C54.7113 23.1502 54.8254 23.2612 54.9734 23.3425C55.1226 23.4226 55.301 23.4626 55.5085 23.4626C55.7159 23.4626 55.8943 23.4226 56.0435 23.3425C56.1928 23.2612 56.3068 23.1502 56.3857 23.0094C56.4658 22.8675 56.5058 22.7055 56.5058 22.5235V20.092ZM65.4337 20.092V23.8193H64.9824V20.092H65.4337ZM73.2587 20.4924V20.092H76.0542V20.4924H74.8821V23.8193H74.4308V20.4924H73.2587ZM83.8747 23.8193V20.092H86.1242V20.4924H84.326V21.7518H86.0077V22.1522H84.326V23.4189H86.1533V23.8193H83.8747Z" fill="#0C2040"/>
<path d="M46.6163 3.59506L50.4409 8.6517L54.2656 3.59506H56.7295V16.6504H54.1553V7.7507L50.4777 12.4764H50.4041L46.7266 7.7507V16.6504H44.1523V3.59506H46.6163ZM67.909 12.5867H60.9217C61.0075 13.2486 61.2527 13.7574 61.6572 14.1129C62.0617 14.4561 62.595 14.6277 63.2569 14.6277C63.6737 14.6277 64.0476 14.5419 64.3786 14.3703C64.7218 14.1864 64.967 13.9229 65.1141 13.5796H67.7435C67.4616 14.5603 66.9038 15.3571 66.0703 15.97C65.2489 16.5707 64.2866 16.871 63.1834 16.871C61.7614 16.871 60.5968 16.3991 59.6897 15.4552C58.7826 14.5113 58.329 13.2977 58.329 11.8144C58.329 10.3802 58.7826 9.18495 59.6897 8.22878C60.5968 7.27262 61.7553 6.79453 63.165 6.79453C64.5747 6.79453 65.7209 7.27262 66.6035 8.22878C67.4984 9.17269 67.9458 10.3679 67.9458 11.8144L67.909 12.5867ZM63.1466 8.89074C62.5582 8.89074 62.074 9.05623 61.694 9.38721C61.3139 9.70593 61.0688 10.1472 60.9584 10.7111H65.3347C65.2367 10.1595 64.9976 9.71819 64.6176 9.38721C64.2376 9.05623 63.7473 8.89074 63.1466 8.89074ZM72.7623 16.871C70.1389 16.871 68.7476 15.7555 68.5882 13.5245H71.2361C71.2606 13.88 71.4016 14.1803 71.659 14.4255C71.9287 14.6584 72.321 14.7748 72.8358 14.7748C73.3262 14.7748 73.7 14.6952 73.9575 14.5358C74.2149 14.3764 74.3436 14.1619 74.3436 13.8922C74.3436 13.598 74.1597 13.3835 73.792 13.2486C73.4242 13.1015 72.9768 12.9851 72.4497 12.8993C71.9348 12.8135 71.4138 12.697 70.8867 12.5499C70.3596 12.4028 69.9122 12.1147 69.5444 11.6857C69.1766 11.2566 68.9928 10.6866 68.9928 9.97562C68.9928 9.08075 69.3483 8.32685 70.0593 7.71392C70.7702 7.101 71.7019 6.79453 72.8542 6.79453C74.1659 6.79453 75.1404 7.12551 75.7779 7.78748C76.4153 8.44944 76.7585 9.20333 76.8076 10.0492H74.2884C74.2639 9.71819 74.123 9.44238 73.8655 9.22172C73.6204 9.00107 73.2771 8.89074 72.8358 8.89074C72.419 8.89074 72.0942 8.98268 71.8613 9.16656C71.6283 9.33818 71.5119 9.55883 71.5119 9.82852C71.5119 10.1227 71.6958 10.3372 72.0635 10.4721C72.4313 10.6069 72.8726 10.7173 73.3874 10.8031C73.9146 10.8766 74.4355 10.987 74.9504 11.1341C75.4775 11.2812 75.925 11.5754 76.2927 12.0167C76.6605 12.458 76.8443 13.0464 76.8443 13.7819C76.8443 14.6768 76.4766 15.4184 75.7411 16.0068C75.0178 16.583 74.0249 16.871 72.7623 16.871ZM80.7973 2.85955V7.8978C81.3489 7.16229 82.2377 6.79453 83.4635 6.79453C84.6036 6.79453 85.4801 7.1439 86.093 7.84264C86.7059 8.52912 87.0124 9.46076 87.0124 10.6376V16.6504H84.4013V10.9318C84.4013 9.66916 83.8558 9.03784 82.7648 9.03784C82.1396 9.03784 81.6554 9.22785 81.3122 9.60787C80.9689 9.97562 80.7973 10.4905 80.7973 11.1524V16.6504H78.1862V2.85955H80.7973Z" fill="#0C2040"/>
<path fill-rule="evenodd" clip-rule="evenodd" d="M4.57721 7.20603C4.36274 7.08221 4.25307 6.83883 4.25307 6.59119C4.25307 5.64554 4.40047 4.4928 5.21942 4.01998L9.96702 1.27895C11.4555 0.419576 13.2894 0.419578 14.7779 1.27895L20.1716 4.39302C20.7235 4.71168 20.9084 5.40815 20.9084 6.04548C20.9084 6.40145 20.7654 6.76118 20.4571 6.93916L15.3829 9.86874C14.5232 10.3651 13.4359 10.193 12.4433 10.193C11.3599 10.193 10.1597 10.4291 9.22144 9.88738L4.57721 7.20603ZM0.986816 9.24122C0.986816 9.18461 1.04041 9.14395 1.09583 9.15551C1.26938 9.19172 1.44922 9.21075 1.63351 9.21075C2.59361 9.21075 3.64112 9.05941 4.47259 9.53946L9.67371 12.5423C9.76925 12.5975 9.82371 12.7022 9.82371 12.8126C9.82371 14.6238 11.3323 16.3423 11.3323 18.1535L11.3323 23.8557C11.3323 24.6106 10.6208 25.1728 9.96702 24.7954L3.39224 20.9994C1.90376 20.1401 0.986816 18.5519 0.986816 16.8331L0.986816 9.24122ZM15.0628 12.8126C15.0628 14.6718 13.4638 16.4338 13.4638 18.293L13.4638 23.8965C13.4638 24.6214 14.1501 25.1578 14.7779 24.7954L21.3526 20.9994C22.8411 20.1401 23.7581 18.5519 23.7581 16.8331L23.7581 9.24122C23.7581 9.11057 23.7528 8.98068 23.7423 8.8518C23.7335 8.74304 23.637 8.66504 23.5279 8.66504C22.6802 8.66504 21.7673 8.57654 21.0332 9.00038L15.3449 12.2845C15.1601 12.3912 15.0628 12.5992 15.0628 12.8126Z" fill="url(#paint0_linear_167_21742)"/>
<line opacity="0.4" x1="33.3742" y1="1.82031" x2="33.3742" y2="25.7868" stroke="#0C2040" stroke-width="0.270881"/>
<defs>
<linearGradient id="paint0_linear_167_21742" x1="1.01342" y1="5.57291" x2="23.5912" y2="20.3393" gradientUnits="userSpaceOnUse">
<stop offset="0.1875" stop-color="#2DD4BF"/>
<stop offset="1" stop-color="#0E9988"/>
</linearGradient>
</defs>
</svg>
